<svg width="56" height="50" viewBox="0 0 56 50" fill="none" xmlns="http://www.w3.org/2000/svg">
<path d="M52.3695 0.625H3.61947C1.53019 0.625 0.137329 2.01786 0.137329 4.10714V45.8929C0.137329 47.9821 1.53019 49.375 3.61947 49.375H52.3695C54.4588 49.375 55.8516 47.9821 55.8516 45.8929V4.10714C55.8516 2.01786 54.4588 0.625 52.3695 0.625ZM21.0302 11.0714C23.1195 11.0714 24.5123 12.4643 24.5123 14.5536C24.5123 16.6429 23.1195 18.0357 21.0302 18.0357C18.9409 18.0357 17.548 16.6429 17.548 14.5536C17.548 12.4643 18.9409 11.0714 21.0302 11.0714ZM7.10162 38.9286L14.0659 25L24.5123 31.9643L34.9588 18.0357L48.8873 38.9286H7.10162Z" fill="#85848C"/>
</svg>
