<svg width="21" height="16" viewBox="0 0 21 16" fill="none" xmlns="http://www.w3.org/2000/svg">
<path fill-rule="evenodd" clip-rule="evenodd" d="M3 0C2.33696 0 1.70107 0.233167 1.23223 0.648206C0.763392 1.06325 0.5 1.62616 0.5 2.21311V13.2787C0.5 13.8656 0.763392 14.4286 1.23223 14.8436C1.70107 15.2586 2.33696 15.4918 3 15.4918H18C18.663 15.4918 19.2989 15.2586 19.7678 14.8436C20.2366 14.4286 20.5 13.8656 20.5 13.2787V2.21311C20.5 1.62616 20.2366 1.06325 19.7678 0.648206C19.2989 0.233167 18.663 0 18 0H3ZM18 13.2787H3L8 4.42623L11.75 11.0656L14.25 6.63935L18 13.2787Z" fill="#727178"/>
</svg>
