<svg width="18" height="20" viewBox="0 0 18 20" fill="none" xmlns="http://www.w3.org/2000/svg">
<path d="M16.0624 1.25931C14.2197 -0.41977 11.232 -0.41977 9.38929 1.25931L4.38446 5.81967C2.54173 7.49875 2.54173 10.2211 4.38446 11.9002C6.22719 13.5792 9.21484 13.5792 11.0576 11.9002L11.7566 11.2632C11.5547 10.943 11.3127 10.6127 11.0575 10.3801C10.8022 10.1475 10.4397 9.92702 10.0884 9.74303L9.38929 10.38C8.46793 11.2196 6.9741 11.2196 6.05274 10.38C5.13137 9.54049 5.13137 8.17933 6.05274 7.33979L11.0576 2.77943C11.9789 1.93989 13.4728 1.93989 14.3941 2.77943C15.3155 3.61897 15.3155 4.98013 14.3941 5.81967L13.4316 6.69668C13.7715 6.87596 14.1255 7.09519 14.394 7.33987C14.6837 7.60384 14.9231 7.91363 15.1122 8.20558L16.0624 7.33979C17.9051 5.66071 17.9051 2.93839 16.0624 1.25931Z" fill="#727178"/>
<path d="M13.56 8.09985C11.7173 6.42077 8.7296 6.42077 6.88688 8.09985L6.19008 8.73477C6.394 9.05871 6.63662 9.39194 6.88688 9.61997C7.17657 9.88394 7.51657 10.1021 7.83699 10.2744L8.55515 9.61997C9.47652 8.78043 10.9703 8.78043 11.8917 9.61997C12.8131 10.4595 12.8131 11.8207 11.8917 12.6602L6.88688 17.2206C5.96551 18.0601 4.47169 18.0601 3.55032 17.2206C2.62896 16.381 2.62896 15.0199 3.55032 14.1803L4.50043 13.3146C4.18001 13.1423 3.84002 12.9242 3.55032 12.6602C3.26063 12.3962 3.02124 12.0864 2.83216 11.7945L1.88205 12.6602C0.0393181 14.3393 0.0393181 17.0616 1.88205 18.7407C3.72477 20.4198 6.71243 20.4198 8.55515 18.7407L13.56 14.1803C15.4027 12.5013 15.4027 9.77893 13.56 8.09985Z" fill="#727178"/>
</svg>
