<svg width="21" height="22" viewBox="0 0 21 22" fill="none" xmlns="http://www.w3.org/2000/svg">
<path d="M4.01029 21H16.5617C17.2275 21 17.866 20.7659 18.3368 20.3491C18.8075 19.9324 19.072 19.3671 19.072 18.7778V8.12667C19.0719 7.83201 18.9397 7.54944 18.7043 7.34111L11.9089 1.32556C11.6736 1.11717 11.3544 1.00006 11.0215 1H4.01029C3.34452 1 2.70602 1.23413 2.23525 1.65087C1.76448 2.06762 1.5 2.63285 1.5 3.22222V18.7778C1.5 19.3671 1.76448 19.9324 2.23525 20.3491C2.70602 20.7659 3.34452 21 4.01029 21Z" stroke="#727178" stroke-width="2" stroke-linecap="round" stroke-linejoin="round"/>
<path d="M4.63284 16V11.74H6.46884C6.67684 11.74 6.86884 11.782 7.04484 11.866C7.22084 11.95 7.37284 12.064 7.50084 12.208C7.62884 12.348 7.72684 12.506 7.79484 12.682C7.86684 12.858 7.90284 13.036 7.90284 13.216C7.90284 13.468 7.84284 13.706 7.72284 13.93C7.60684 14.154 7.44284 14.338 7.23084 14.482C7.02284 14.622 6.77884 14.692 6.49884 14.692H5.80284V16H4.63284ZM5.80284 13.672H6.42084C6.49284 13.672 6.55884 13.64 6.61884 13.576C6.68284 13.508 6.71484 13.388 6.71484 13.216C6.71484 13.04 6.67884 12.92 6.60684 12.856C6.53484 12.792 6.46284 12.76 6.39084 12.76H5.80284V13.672ZM8.49112 16V11.74H10.1291C10.6011 11.74 10.9951 11.836 11.3111 12.028C11.6311 12.216 11.8711 12.472 12.0311 12.796C12.1951 13.116 12.2771 13.472 12.2771 13.864C12.2771 14.296 12.1871 14.672 12.0071 14.992C11.8311 15.312 11.5811 15.56 11.2571 15.736C10.9371 15.912 10.5611 16 10.1291 16H8.49112ZM11.0891 13.864C11.0891 13.532 11.0031 13.266 10.8311 13.066C10.6631 12.862 10.4291 12.76 10.1291 12.76H9.66112V14.98H10.1291C10.4371 14.98 10.6731 14.874 10.8371 14.662C11.0051 14.45 11.0891 14.184 11.0891 13.864ZM12.906 16V11.74H15.828V12.76H14.076V13.468H15.504V14.416H14.076V16H12.906Z" fill="#727178"/>
</svg>
