<svg width="21" height="22" viewBox="0 0 21 22" fill="none" xmlns="http://www.w3.org/2000/svg">
<path d="M9.25488 14.6059L3.25488 14.6059C2.72445 14.6059 2.21574 14.8304 1.84067 15.2301C1.4656 15.6298 1.25488 16.172 1.25488 16.7372V18.8686C1.25488 19.4339 1.4656 19.976 1.84067 20.3757C2.21574 20.7754 2.72445 21 3.25488 21H9.25488C9.78532 21 10.294 20.7754 10.6691 20.3757C11.0442 19.976 11.2549 19.4339 11.2549 18.8686V16.7372C11.2549 16.172 11.0442 15.6298 10.6691 15.2301C10.294 14.8304 9.78532 14.6059 9.25488 14.6059Z" stroke="#727178" stroke-width="2" stroke-linecap="round" stroke-linejoin="round"/>
<path d="M3 7.39404L9 7.39404M3 7.39404L13 7.39404C13.5304 7.39404 14.0391 7.16949 14.4142 6.76978C14.7893 6.37007 15 5.82794 15 5.26267V3.13129C15 2.56601 14.7893 2.02389 14.4142 1.62418C14.0391 1.22447 13.5304 0.999913 13 0.999913L3 0.999913C2.46957 0.999913 1.96086 1.22447 1.58579 1.62418C1.21071 2.02389 1 2.56601 1 3.13129V5.26267C1 5.82794 1.21071 6.37007 1.58579 6.76978C1.96086 7.16949 2.46957 7.39404 3 7.39404Z" stroke="#727178" stroke-width="2" stroke-linecap="round" stroke-linejoin="round"/>
<path d="M13.002 14.1079L3.00195 14.1079M3.00195 14.1079L17.002 14.1079C17.5324 14.1079 18.0411 13.8834 18.4162 13.4836C18.7912 13.0839 19.002 12.5418 19.002 11.9765V9.84516C19.002 9.27988 18.7912 8.73776 18.4162 8.33805C18.0411 7.93834 17.5324 7.71378 17.002 7.71378L3.00195 7.71378C2.47152 7.71378 1.96281 7.93834 1.58774 8.33805C1.21267 8.73776 1.00195 9.27988 1.00195 9.84516V11.9765C1.00195 12.5418 1.21267 13.0839 1.58774 13.4836C1.96281 13.8834 2.47152 14.1079 3.00195 14.1079Z" stroke="#727178" stroke-width="2" stroke-linecap="round" stroke-linejoin="round"/>
</svg>
