<svg width="23" height="22" viewBox="0 0 23 22" fill="none" xmlns="http://www.w3.org/2000/svg">
<path d="M18.1707 18.0711C20.046 16.1957 21.0996 13.6522 21.0996 11C21.0996 8.34784 20.046 5.8043 18.1707 3.92893C16.2953 2.05357 13.7518 1 11.0996 1C8.44744 1 5.90391 2.05357 4.02854 3.92893C2.15318 5.8043 1.09961 8.34784 1.09961 11C1.09961 13.6522 2.15318 16.1957 4.02854 18.0711C5.90391 19.9464 8.44744 21 11.0996 21C13.7518 21 16.2953 19.9464 18.1707 18.0711Z" stroke="#727178" stroke-width="2"/>
<path fill-rule="evenodd" clip-rule="evenodd" d="M10.9625 7.9999C10.7868 7.99972 10.6141 8.04585 10.4619 8.13363C10.3097 8.22141 10.1833 8.34774 10.0955 8.4999C10.032 8.61778 9.94557 8.72172 9.84121 8.80557C9.73686 8.88941 9.61674 8.95145 9.48797 8.98801C9.35919 9.02457 9.22439 9.0349 9.09155 9.01839C8.95871 9.00189 8.83053 8.95888 8.71462 8.89192C8.59871 8.82496 8.49743 8.7354 8.41677 8.62857C8.33611 8.52174 8.27772 8.3998 8.24506 8.26998C8.2124 8.14016 8.20614 8.00511 8.22665 7.87283C8.24715 7.74055 8.29401 7.61373 8.36443 7.49989C8.69466 6.92799 9.20435 6.48104 9.81448 6.22833C10.4246 5.97563 11.1011 5.9313 11.7389 6.10223C12.3768 6.27315 12.9405 6.64977 13.3425 7.17368C13.7446 7.6976 13.9625 8.33952 13.9625 8.99991C13.9627 9.62053 13.7704 10.226 13.4123 10.7328C13.0541 11.2396 12.5476 11.6229 11.9625 11.8299V11.9999C11.9625 12.2652 11.8571 12.5195 11.6696 12.7071C11.482 12.8946 11.2277 13 10.9625 13C10.6972 13 10.4429 12.8946 10.2554 12.7071C10.0678 12.5195 9.96245 12.2652 9.96245 11.9999V10.9999C9.96245 10.7347 10.0678 10.4804 10.2554 10.2928C10.4429 10.1053 10.6972 9.99992 10.9625 9.99992C11.2277 9.99992 11.482 9.89456 11.6696 9.70702C11.8571 9.51949 11.9625 9.26513 11.9625 8.99991C11.9625 8.73469 11.8571 8.48033 11.6696 8.29279C11.482 8.10525 11.2277 7.9999 10.9625 7.9999ZM10.9625 16C11.2277 16 11.482 15.8946 11.6696 15.7071C11.8571 15.5196 11.9625 15.2652 11.9625 15C11.9625 14.7348 11.8571 14.4804 11.6696 14.2929C11.482 14.1053 11.2277 14 10.9625 14C10.6972 14 10.4429 14.1053 10.2554 14.2929C10.0678 14.4804 9.96245 14.7348 9.96245 15C9.96245 15.2652 10.0678 15.5196 10.2554 15.7071C10.4429 15.8946 10.6972 16 10.9625 16Z" fill="#727178"/>
</svg>
