<svg width="21" height="16" viewBox="0 0 21 16" fill="none" xmlns="http://www.w3.org/2000/svg">
<path fill-rule="evenodd" clip-rule="evenodd" d="M3 0C2.33696 0 1.70107 0.233167 1.23223 0.648206C0.763392 1.06325 0.5 1.62616 0.5 2.21311V13.2787C0.5 13.8656 0.763392 14.4286 1.23223 14.8436C1.70107 15.2586 2.33696 15.4918 3 15.4918H18C18.663 15.4918 19.2989 15.2586 19.7678 14.8436C20.2366 14.4286 20.5 13.8656 20.5 13.2787V2.21311C20.5 1.62616 20.2366 1.06325 19.7678 0.648206C19.2989 0.233167 18.663 0 18 0H3ZM6.75 2.21311H14.25V6.63935H6.75V2.21311ZM16.75 11.0656V13.2787H18V11.0656H16.75ZM14.25 8.85246H6.75V13.2787H14.25V8.85246ZM16.75 8.85246H18V6.63935H16.75V8.85246ZM18 4.42623V2.21311H16.75V4.42623H18ZM4.25 2.21311V4.42623H3V2.21311H4.25ZM4.25 6.63935H3V8.85246H4.25V6.63935ZM3 11.0656H4.25V13.2787H3V11.0656Z" fill="#727178"/>
</svg>
